<?xml version="1.0" encoding="UTF-8"?><svg xmlns="http://www.w3.org/2000/svg" viewBox="0 0 1092.04 309.28"><defs><style>.d{fill:#282354;}</style></defs><g id="a"/><g id="b"><g id="c"><path class="d" d="M305.15,0H4.13C1.85,0,0,1.85,0,4.13V305.15c0,2.28,1.85,4.13,4.13,4.13H305.15c2.28,0,4.13-1.85,4.13-4.13V4.13c0-2.29-1.85-4.13-4.13-4.13ZM8.27,301.01V81.33h120.32v95.23c0,2.28,1.85,4.13,4.13,4.13h95.23v120.32H8.27ZM136.86,172.43V87.18l85.25,85.25h-85.25Zm164.16,128.59h-64.79v-124.45c0-.27-.02-.53-.08-.8,0-.05-.02-.09-.03-.14-.05-.22-.12-.43-.2-.63-.04-.11-.09-.21-.14-.31,0-.02-.02-.05-.03-.07-.03-.06-.06-.12-.1-.17-.07-.12-.14-.23-.22-.34-.08-.1-.16-.2-.25-.3-.05-.06-.1-.11-.15-.16l-99.36-99.37c-.24-.24-.51-.45-.8-.62-.06-.04-.12-.07-.17-.1,0,0,0,0-.01,0-.17-.09-.35-.17-.53-.24-.45-.16-.93-.25-1.41-.24H8.27V8.27H301.01V301.01Z"/><g><g><path class="d" d="M439.64,65.68c1.33-1.64,2.72-3.47,4.17-5.49,1.7-2.46,3.12-3.69,4.26-3.69,1.26,0,2.08,.32,2.46,.95,.38,.63,.69,2.59,.95,5.87l1.89,29.54,.19,3.79c0,2.53-1.01,3.79-3.03,3.79-1.33,0-2.4-1.04-3.22-3.12-2.59-6.69-7.25-14.12-13.98-22.3-6.73-8.17-15.22-12.26-25.46-12.26-7.58,0-13.95,2.19-19.1,6.58-5.15,4.39-9.17,10.4-12.04,18.04-2.88,7.64-4.31,16.79-4.31,27.46,0,18.24,4.01,32.75,12.03,43.51,8.02,10.76,18,16.14,29.94,16.14,12.95,0,24.82-7.83,35.62-23.48,1.32-1.89,2.57-2.84,3.76-2.84,2.01,0,3.01,1.01,3.01,3.03,0,4.17-4.97,10.79-14.91,19.88-9.94,9.09-22.39,13.64-37.35,13.64-19.82,0-35.48-6.12-46.96-18.37-11.49-12.25-17.23-27.3-17.23-45.17s5.8-33.25,17.39-46.35c11.59-13.1,26.24-19.65,43.93-19.65,12.45,0,25.11,3.5,38,10.51Z"/><path class="d" d="M523.73,53.66h6.46c8.32,18.05,20.09,46.46,35.29,85.22,7,17.8,11.83,28.59,14.48,32.38,2.65,3.78,6.85,6.09,12.6,6.92,1.89,.25,2.84,1.07,2.84,2.46,0,1.96-1.23,2.94-3.69,2.94-1.33,0-4.77-.22-10.32-.66-6.57-.57-12.09-.85-16.57-.85s-10.04,.25-17.04,.76c-5.24,.38-8.68,.57-10.32,.57-2.9,0-4.36-.92-4.36-2.75,0-1.39,1.01-2.18,3.03-2.37,7.76-.7,11.65-3.75,11.65-9.16,0-2.54-1.13-7.2-3.4-13.96s-4.69-12.91-7.27-18.45c-4.11-.06-7.31-.09-9.59-.09-12.72,0-22.62,.03-29.71,.09-5.44,14.9-8.16,24.77-8.16,29.6,0,3.45,1.36,6.14,4.07,8.06,2.71,1.92,5.65,3.03,8.81,3.34,2.4,.25,3.6,1.23,3.6,2.94s-1.29,2.56-3.88,2.56c-1.01,0-3.66-.16-7.95-.47-5.56-.44-9.6-.66-12.12-.66-4.99,0-9.72,.31-14.2,.95-1.14,.19-2.08,.28-2.84,.28-2.34,0-3.5-.95-3.5-2.84,0-1.39,.76-2.3,2.27-2.75,3.79-1.07,6.75-2.39,8.9-3.96,2.15-1.57,4.46-4.58,6.96-9.05,2.49-4.46,5.48-11.62,8.96-21.46,7.85-22.09,19.52-51.95,35.03-89.57Zm-6.68,33.05l-16.44,42.33,33.48-.48c-1.77-4.95-4.48-11.74-8.13-20.37-3.98-9.33-6.95-16.49-8.9-21.47Z"/><path class="d" d="M635.85,56.97c30.23,34.4,55.45,61.99,75.64,82.76,.06-4.29,.09-7.06,.09-8.32l.09-37.45c0-8.83-.51-15.15-1.51-18.96-1.01-3.81-3.16-6.82-6.44-9.03-3.28-2.21-7.1-3.5-11.46-3.88-2.34-.25-3.5-1.23-3.5-2.94,0-1.83,1.07-2.75,3.22-2.75,1.2,0,2.75,.12,4.64,.34,3.6,.4,8.87,.6,15.81,.6,8.71,0,15.34-.23,19.88-.69,1.89-.17,3.5-.26,4.83-.26,2.4,0,3.6,.92,3.6,2.75s-1.61,2.81-4.83,3.12c-3.98,.38-7.69,2.05-11.13,5.01-3.44,2.96-5.16,8.8-5.16,17.5l.47,53.55-.66,40.31c0,3.47-1.07,5.2-3.22,5.2-.57,0-1.23-.19-1.99-.57s-5.1-4.75-13.02-13.11c-7.92-8.36-19.69-21.34-35.32-38.92-15.62-17.58-26.59-30.19-32.9-37.83-.13,1.7-.19,17.58-.19,47.63,0,9.28,.39,16.56,1.18,21.83,.79,5.27,3.25,9.09,7.39,11.46,4.13,2.37,7.87,3.55,11.22,3.55,2.15,0,3.22,.82,3.22,2.46,0,1.89-1.14,2.84-3.41,2.84-1.45,0-3.28-.13-5.49-.38-3.79-.51-8.62-.76-14.49-.76-9.41,0-16.22,.28-20.45,.85-2.65,.32-4.54,.47-5.68,.47-2.46,0-3.69-1.04-3.69-3.12,0-1.52,1.99-2.43,5.97-2.75,7.13-.57,11.6-3.03,13.4-7.39,1.8-4.36,2.7-10.29,2.7-17.8,0-32.57-.17-52.49-.52-59.75-.35-7.26-2.62-13.82-6.82-19.69s-9.26-9.37-15.2-10.51c-2.46-.44-3.69-1.42-3.69-2.94,0-2.08,1.29-3.12,3.88-3.12,.63,0,1.55,.06,2.75,.19,1.45,.13,4.07,.19,7.86,.19,8.21,0,15.85,.09,22.92,.28Z"/><path class="d" d="M814.6,184.8h-7.5l-17.43-45.45c-4.36-11.49-9.88-25.52-16.58-42.09s-10.99-26.19-12.89-28.87c-1.9-2.67-3.62-4.44-5.17-5.3-1.55-.86-3.91-1.42-7.07-1.67-2.03-.06-3.04-.91-3.04-2.56,0-1.83,1.2-2.75,3.6-2.75l25.57,.95c8.9,0,17.71-.32,26.42-.95,2.4-.13,3.85-.19,4.36-.19,3.03,0,4.54,1.04,4.54,3.12,0,1.39-1.36,2.24-4.07,2.56-7.2,.88-10.79,4.14-10.79,9.75,0,9.72,8.32,35.85,24.95,78.4,5.54-13.95,10.84-28.03,15.88-42.23l9.26-26.04c1.07-3.16,1.61-6.19,1.61-9.09s-1.03-5.49-3.08-7.58c-2.05-2.08-4.37-3.16-6.96-3.22-2.9-.13-4.36-.98-4.36-2.56,0-2.02,1.17-3.03,3.5-3.03,1.77,0,3.98,.09,6.63,.28,5.36,.44,10.19,.66,14.49,.66s8.46-.22,11.93-.66c2.59-.32,4.73-.47,6.44-.47,2.21,0,3.31,.98,3.31,2.94,0,1.64-1.11,2.62-3.31,2.94-3.35,.51-6.22,1.66-8.62,3.46-2.4,1.8-4.75,4.69-7.05,8.66-2.31,3.98-6.13,12.94-11.49,26.89l-16.82,43.46c-8.06,21.21-13.48,34.75-16.25,40.62Z"/><path class="d" d="M920.28,53.66h6.46c8.32,18.05,20.09,46.46,35.29,85.22,7,17.8,11.83,28.59,14.48,32.38,2.65,3.78,6.85,6.09,12.6,6.92,1.89,.25,2.84,1.07,2.84,2.46,0,1.96-1.23,2.94-3.69,2.94-1.33,0-4.77-.22-10.32-.66-6.57-.57-12.09-.85-16.57-.85s-10.04,.25-17.04,.76c-5.24,.38-8.68,.57-10.32,.57-2.9,0-4.36-.92-4.36-2.75,0-1.39,1.01-2.18,3.03-2.37,7.76-.7,11.65-3.75,11.65-9.16,0-2.54-1.13-7.2-3.4-13.96s-4.69-12.91-7.27-18.45c-4.11-.06-7.31-.09-9.59-.09-12.72,0-22.62,.03-29.71,.09-5.44,14.9-8.16,24.77-8.16,29.6,0,3.45,1.36,6.14,4.07,8.06,2.71,1.92,5.65,3.03,8.81,3.34,2.4,.25,3.6,1.23,3.6,2.94s-1.29,2.56-3.88,2.56c-1.01,0-3.66-.16-7.95-.47-5.56-.44-9.6-.66-12.12-.66-4.99,0-9.72,.31-14.2,.95-1.14,.19-2.08,.28-2.84,.28-2.34,0-3.5-.95-3.5-2.84,0-1.39,.76-2.3,2.27-2.75,3.79-1.07,6.75-2.39,8.9-3.96,2.15-1.57,4.46-4.58,6.96-9.05,2.49-4.46,5.48-11.62,8.96-21.46,7.85-22.09,19.52-51.95,35.03-89.57Zm-6.68,33.05l-16.44,42.33,33.48-.48c-1.77-4.95-4.48-11.74-8.13-20.37-3.98-9.33-6.95-16.49-8.9-21.47Z"/><path class="d" d="M1070.92,61.33c.82-.81,1.64-2.05,2.46-3.74,.95-1.99,2.02-2.99,3.22-2.99,1.7,0,2.75,1.39,3.12,4.17l3.31,25.94,.38,3.12c0,1.7-.85,2.56-2.56,2.56-1.26,0-2.18-.3-2.75-.9-.57-.6-1.64-2.55-3.22-5.84-2.71-5.64-7.2-10.7-13.45-15.2-6.25-4.5-12.53-6.75-18.84-6.75s-11.22,1.76-15.29,5.27c-4.07,3.51-6.11,7.93-6.11,13.24,0,4.24,1.89,8.07,5.68,11.49,3.79,3.42,11.08,6.64,21.87,9.68,16.92,4.81,28.37,10.74,34.37,17.81,5.93,7.07,8.9,14.92,8.9,23.57s-2.18,16.25-6.53,22.25c-4.36,5.99-9.56,10.71-15.62,14.15-6.06,3.44-13.82,5.16-23.29,5.16-5.37,0-10.92-.77-16.67-2.32-5.75-1.55-11.68-3.87-17.8-6.96-1.26,1.45-2.34,3.35-3.22,5.68-1.01,2.59-2.27,3.88-3.79,3.88s-2.53-1.7-2.84-5.11l-2.75-34.37c-.13-1.52-.19-2.46-.19-2.84,0-1.83,.95-2.75,2.84-2.75,1.39,0,2.71,1.58,3.98,4.73,3.85,9.47,9.09,17.36,15.72,23.67,6.56,6.31,14.23,9.47,23.01,9.47,7.45,0,13.46-2.21,18.04-6.63,4.58-4.42,6.87-9.44,6.87-15.06s-2.12-10.35-6.34-14.2c-4.23-3.85-11.84-7.54-22.82-11.08-10.67-3.47-18.61-6.79-23.81-9.94-5.21-3.16-9.37-7.5-12.5-13.02-3.12-5.52-4.69-11.13-4.69-16.81,0-9.91,3.83-18.34,11.5-25.28,7.67-6.94,18.1-10.42,31.29-10.42,7.13,0,16.63,2.12,28.5,6.35Z"/></g><g><path class="d" d="M345.03,218.47l5.73-.11c7.25,0,12.74,1.76,16.45,5.29,3.71,3.53,5.57,7.97,5.57,13.33,0,3.8-.89,7.11-2.67,9.92-1.78,2.81-4.01,4.93-6.68,6.36-2.67,1.43-6.23,2.14-10.69,2.14-1,0-2.27-.06-3.81-.17-2.75-.22-4.29-.33-4.62-.33-6.09,0-9.67,.06-10.74,.19-.61,0-.92-.16-.92-.47,0-.22,.11-.36,.33-.43s.91-.18,2.06-.33c1.48-.2,2.53-.8,3.13-1.78,.6-.98,.98-4.05,1.13-9.19l.45-14.73c0-1.71-.12-3.36-.35-4.94-.23-1.59-.59-2.61-1.09-3.06-.49-.45-1.28-.77-2.35-.93-.78-.11-1.17-.32-1.17-.64,0-.39,.2-.58,.58-.58s1.51,.08,3.41,.24c1.9,.16,3.98,.24,6.25,.24Zm-.97,26.89c0,2.45,.16,4.2,.49,5.25,.32,1.05,1.02,1.91,2.09,2.59,1.07,.68,2.78,1.02,5.13,1.02,3.38,0,6.11-.8,8.21-2.39,2.1-1.6,3.73-3.72,4.91-6.37,1.18-2.65,1.77-5.47,1.77-8.46,0-4.42-1.34-8.41-4.04-12-2.69-3.58-6.88-5.37-12.55-5.37-2.52,0-3.99,.08-4.41,.25-.42,.17-.63,.66-.63,1.48,0,.72-.07,2.01-.2,3.87-.19,2.71-.31,4.82-.36,6.35l-.25,7.65c-.11,3.58-.17,5.63-.17,6.15Z"/><path class="d" d="M407.01,218.78c.54,2.08,1.07,4.99,1.59,8.74-.09,.15-.19,.22-.3,.22-.13,0-.26-.07-.41-.22-1.28-2.06-2.51-3.63-3.68-4.7-1.17-1.08-2.34-1.84-3.52-2.3s-3.21-.68-6.08-.68c-2.71,0-4.86,.16-6.43,.47-.15,.19-.22,.53-.22,1.03,0,.13-.02,.36-.05,.69-.19,1.48-.28,5.5-.28,12.06,0,.28,.02,.67,.06,1.17,1.41,.06,2.38,.08,2.9,.08,2.34,0,4.03-.35,5.08-1.05,1.05-.7,1.96-2.2,2.74-4.52,.13-.39,.31-.59,.55-.59,.35,0,.53,.27,.53,.81l-.11,1.12c-.15,1.47-.22,2.98-.22,4.55,0,2.53,.05,4.81,.14,6.83,0,.63-.17,.95-.51,.95-.25,0-.42-.22-.51-.67-.39-2.19-1.21-3.77-2.46-4.73-1.25-.96-3.96-1.45-8.13-1.45-.06,1.35-.08,3.54-.08,6.57,0,3.92,.14,6.4,.42,7.46,.28,1.06,.95,1.9,2,2.52s2.85,.93,5.38,.93c7.22,0,11.88-2.49,13.98-7.46,.26-.61,.52-.92,.8-.92,.29,0,.44,.2,.44,.61,0,.22-.05,.46-.14,.72-.11,.35-.38,1.67-.81,3.95-.09,.48-.45,1.93-1.06,4.34l-11.66-.03c-1.67,0-4.12-.07-7.36-.21-3.24-.14-6.11-.21-8.6-.22s-3.8-.06-3.91-.15c-.11-.09-.17-.19-.17-.31,0-.37,.31-.56,.92-.56,2.06,0,3.41-.55,4.06-1.64,.65-1.09,.97-3.75,.97-7.98l-.03-5.7,.08-5.34c0-1.08-.06-3.11-.18-6.1-.12-2.99-.23-4.7-.33-5.13-.1-.43-.39-.85-.86-1.27-.47-.42-1.52-.84-3.13-1.27-.48-.13-.72-.33-.72-.61,0-.33,.32-.5,.97-.5l5.68,.31c2,.09,6.93,.14,14.78,.14,5.16,0,7.79,0,7.9,.03Z"/><path class="d" d="M434.76,220.42c.5-.5,.83-1.02,1-1.56,.15-.45,.36-.67,.64-.67,.15,0,.32,.09,.5,.28,.13,.67,.32,2.01,.56,4.04l.67,5.23c0,.33-.2,.5-.61,.5-.22,0-.42-.19-.58-.56-.98-2.43-2.44-4.45-4.37-6.07-1.93-1.6-4.04-2.39-6.32-2.39s-3.94,.68-5.08,2.03c-1.14,1.35-1.71,2.79-1.71,4.31,0,1.86,.62,3.27,1.87,4.26,1.24,.98,3.8,2.1,7.68,3.34,2.86,.89,5,1.75,6.42,2.59,1.42,.83,2.61,2,3.58,3.51,.96,1.5,1.45,3.12,1.45,4.84,0,2.93-1.22,5.56-3.65,7.88-2.43,2.32-5.41,3.48-8.93,3.48-3.17,0-6.37-.99-9.57-2.98-.63,.52-1.04,1.13-1.22,1.84-.15,.59-.39,.89-.72,.89-.3,0-.51-.38-.64-1.14-.13-.76-.4-4.36-.81-10.8,.07-.22,.27-.33,.58-.33,.28,0,.5,.2,.67,.61,2.86,7.18,6.85,10.77,11.97,10.77,2.54,0,4.53-.77,5.97-2.3,1.44-1.53,2.16-3.29,2.16-5.27,0-1.37-.39-2.63-1.16-3.79-.77-1.15-1.79-2.08-3.06-2.78-1.27-.71-3.28-1.49-6.03-2.37-3.53-1.13-5.92-2.2-7.19-3.21-1.27-1.01-2.2-2.15-2.8-3.42-.59-1.27-.89-2.5-.89-3.69,0-2.47,1.12-4.66,3.35-6.57,2.24-1.91,4.98-2.87,8.22-2.87,1.22,0,2.51,.19,3.86,.58,1.34,.39,2.75,.98,4.22,1.78Z"/><path class="d" d="M446.2,218.16l5.07,.11,7.78-.11c.93,0,1.39,.19,1.39,.56,0,.28-.25,.46-.75,.53-2.06,.26-3.34,1-3.85,2.23-.51,1.22-.77,5.75-.77,13.58,0,2.88,.07,6.11,.22,9.71,.15,3.6,.32,5.75,.5,6.46,.19,.71,.54,1.28,1.06,1.73s1.48,.76,2.89,.95c.46,.06,.7,.23,.7,.53,0,.33-.21,.5-.64,.5l-6.92-.06-5.88,.08c-.65,0-.98-.19-.98-.56s.26-.58,.78-.58c1.73-.04,2.74-.61,3.03-1.73s.45-4.67,.45-10.66-.05-10.47-.15-14.06c-.1-3.58-.4-5.77-.9-6.57-.5-.8-1.45-1.3-2.84-1.5-.52-.09-.78-.31-.78-.64s.2-.5,.59-.5Z"/><path class="d" d="M501.36,230.13c-.24,0-.49-.3-.75-.89-1.52-3.34-3.52-5.92-6.02-7.74-2.5-1.82-5.16-2.72-7.98-2.72-2.32,0-4.57,.7-6.74,2.1-2.17,1.4-3.94,3.56-5.32,6.49-1.37,2.92-2.06,6.04-2.06,9.34,0,4.71,1.41,8.79,4.23,12.22,2.82,3.43,6.35,5.15,10.58,5.15,1.5,0,2.78-.23,3.84-.7,1.06-.46,2.05-1.13,2.99-2,.94-.87,1.5-1.52,1.7-1.95,.2-.43,.29-1.55,.29-3.37,0-3.04-.4-5.05-1.21-6.01-.81-.96-2.1-1.45-3.88-1.45l-.86,.03c-.54,0-.81-.18-.81-.53,0-.43,.3-.64,.89-.64l1.48,.06,6.29-.08,7.71-.17c.43,0,.64,.19,.64,.58s-.24,.6-.72,.64c-1.15,.11-2.09,.36-2.81,.75s-1.17,.83-1.34,1.34-.25,1.35-.25,2.53c0,4.34-.1,6.73-.31,7.15-.2,.43-1.93,1.4-5.18,2.92-3.25,1.52-6.51,2.28-9.8,2.28-5.44,0-10.08-1.74-13.94-5.23-3.86-3.49-5.79-7.9-5.79-13.25,0-3.67,.91-7,2.74-9.98,1.83-2.98,4.33-5.29,7.5-6.93,3.17-1.64,6.4-2.46,9.69-2.46,3.08,0,6.4,.88,9.96,2.64,1,.5,1.71,.75,2.12,.75,.58,0,1.02-.25,1.34-.75,.28-.43,.53-.64,.75-.64,.43,0,.68,.54,.75,1.61,.11,1.69,.38,4.27,.81,7.74,.04,.19,.06,.35,.06,.5,0,.45-.19,.67-.58,.67Z"/><path class="d" d="M517.87,218.64c1.11,1.5,3.04,3.83,5.79,6.99l8.91,10.33,8.57,9.91c.18-3.36,.28-7.72,.28-13.08,0-4.03-.08-6.72-.25-8.08-.17-1.36-.78-2.51-1.85-3.44-1.07-.93-2.4-1.39-3.99-1.39-.74,0-1.11-.16-1.11-.47,0-.19,.08-.32,.24-.4,.16-.08,1.41-.17,3.74-.25,2.34-.08,4.3-.13,5.9-.13l3.76,.03h.61c.58,0,.86,.16,.86,.49,0,.29-.25,.46-.75,.51-1.87,.2-3.22,.69-4.05,1.46s-1.32,1.88-1.47,3.33c-.16,1.45-.24,6.32-.24,14.62l-.27,14.71c0,.74-.18,1.11-.55,1.11-.09,0-.22-.04-.38-.12-.16-.08-.99-1.02-2.5-2.81-1.5-1.79-3.35-3.94-5.55-6.44-2.2-2.5-3.93-4.54-5.19-6.1-2.76-3.36-4.51-5.43-5.23-6.21-2.69-2.86-4.28-4.69-4.76-5.51-.32-.56-.6-.83-.86-.83-.2,0-.31,.36-.31,1.09l.05,4.31c0,5.47,.15,9.84,.45,13.11,.3,3.27,.61,5.18,.93,5.75,.32,.57,.89,1.14,1.7,1.71,.81,.58,1.67,.86,2.57,.86,1.22,0,1.84,.22,1.84,.67,0,.33-.34,.5-1.03,.5l-13.39-.03c-.63,0-.95-.16-.95-.47,0-.37,.31-.56,.92-.56,2.28,0,3.8-.51,4.56-1.52,.76-1.01,1.14-3.16,1.14-6.44l-.23-9.77c0-5.77-.15-9.17-.47-10.2-.32-1.03-1.03-2.28-2.13-3.76-1.1-1.47-2.36-2.31-3.77-2.49-.63-.07-.95-.24-.95-.5,0-.35,.41-.53,1.22-.53l8.18,.06Z"/><path class="d" d="M554.27,218.16l5.07,.11,7.78-.11c.93,0,1.39,.19,1.39,.56,0,.28-.25,.46-.75,.53-2.06,.26-3.34,1-3.85,2.23-.51,1.22-.77,5.75-.77,13.58,0,2.88,.07,6.11,.22,9.71,.15,3.6,.32,5.75,.5,6.46,.19,.71,.54,1.28,1.06,1.73s1.48,.76,2.89,.95c.46,.06,.7,.23,.7,.53,0,.33-.21,.5-.64,.5l-6.92-.06-5.88,.08c-.65,0-.98-.19-.98-.56s.26-.58,.78-.58c1.73-.04,2.74-.61,3.03-1.73s.45-4.67,.45-10.66-.05-10.47-.15-14.06c-.1-3.58-.4-5.77-.9-6.57-.5-.8-1.45-1.3-2.84-1.5-.52-.09-.78-.31-.78-.64s.2-.5,.59-.5Z"/><path class="d" d="M581.99,218.64c1.11,1.5,3.04,3.83,5.79,6.99l8.91,10.33,8.57,9.91c.18-3.36,.28-7.72,.28-13.08,0-4.03-.08-6.72-.25-8.08-.17-1.36-.78-2.51-1.85-3.44-1.07-.93-2.4-1.39-3.99-1.39-.74,0-1.11-.16-1.11-.47,0-.19,.08-.32,.24-.4,.16-.08,1.41-.17,3.74-.25,2.34-.08,4.3-.13,5.9-.13l3.76,.03h.61c.58,0,.86,.16,.86,.49,0,.29-.25,.46-.75,.51-1.87,.2-3.22,.69-4.05,1.46s-1.32,1.88-1.47,3.33c-.16,1.45-.24,6.32-.24,14.62l-.27,14.71c0,.74-.18,1.11-.55,1.11-.09,0-.22-.04-.38-.12-.16-.08-.99-1.02-2.5-2.81-1.5-1.79-3.35-3.94-5.55-6.44-2.2-2.5-3.93-4.54-5.19-6.1-2.76-3.36-4.51-5.43-5.23-6.21-2.69-2.86-4.28-4.69-4.76-5.51-.32-.56-.6-.83-.86-.83-.2,0-.31,.36-.31,1.09l.05,4.31c0,5.47,.15,9.84,.45,13.11,.3,3.27,.61,5.18,.93,5.75,.32,.57,.89,1.14,1.7,1.71,.81,.58,1.67,.86,2.57,.86,1.22,0,1.84,.22,1.84,.67,0,.33-.34,.5-1.03,.5l-13.39-.03c-.63,0-.95-.16-.95-.47,0-.37,.31-.56,.92-.56,2.28,0,3.8-.51,4.56-1.52,.76-1.01,1.14-3.16,1.14-6.44l-.23-9.77c0-5.77-.15-9.17-.47-10.2-.32-1.03-1.03-2.28-2.13-3.76-1.1-1.47-2.36-2.31-3.77-2.49-.63-.07-.95-.24-.95-.5,0-.35,.41-.53,1.22-.53l8.18,.06Z"/><path class="d" d="M652.18,230.13c-.24,0-.49-.3-.75-.89-1.52-3.34-3.52-5.92-6.02-7.74-2.5-1.82-5.16-2.72-7.98-2.72-2.32,0-4.57,.7-6.74,2.1-2.17,1.4-3.94,3.56-5.32,6.49-1.37,2.92-2.06,6.04-2.06,9.34,0,4.71,1.41,8.79,4.23,12.22,2.82,3.43,6.35,5.15,10.58,5.15,1.5,0,2.78-.23,3.84-.7,1.06-.46,2.05-1.13,2.99-2,.94-.87,1.5-1.52,1.7-1.95,.2-.43,.29-1.55,.29-3.37,0-3.04-.4-5.05-1.21-6.01-.81-.96-2.1-1.45-3.88-1.45l-.86,.03c-.54,0-.81-.18-.81-.53,0-.43,.3-.64,.89-.64l1.48,.06,6.29-.08,7.71-.17c.43,0,.64,.19,.64,.58s-.24,.6-.72,.64c-1.15,.11-2.09,.36-2.81,.75s-1.17,.83-1.34,1.34-.25,1.35-.25,2.53c0,4.34-.1,6.73-.31,7.15-.2,.43-1.93,1.4-5.18,2.92-3.25,1.52-6.51,2.28-9.8,2.28-5.44,0-10.08-1.74-13.94-5.23-3.86-3.49-5.79-7.9-5.79-13.25,0-3.67,.91-7,2.74-9.98,1.83-2.98,4.33-5.29,7.5-6.93,3.17-1.64,6.4-2.46,9.69-2.46,3.08,0,6.4,.88,9.96,2.64,1,.5,1.71,.75,2.12,.75,.58,0,1.02-.25,1.34-.75,.28-.43,.53-.64,.75-.64,.43,0,.68,.54,.75,1.61,.11,1.69,.38,4.27,.81,7.74,.04,.19,.06,.35,.06,.5,0,.45-.19,.67-.58,.67Z"/><path class="d" d="M694.29,235.84c1.04-1.15,2.62-3.23,4.75-6.23,2.12-3.01,3.38-4.88,3.76-5.61,.38-.73,.57-1.31,.57-1.74,0-.76-.38-1.37-1.15-1.82-.77-.45-1.55-.68-2.35-.68-.63,0-.95-.17-.95-.5,0-.35,.53-.53,1.59-.53h10.49c.96,0,1.45,.19,1.45,.58,0,.32-.21,.47-.64,.47-1.09,0-2.15,.25-3.16,.75s-2.24,1.62-3.69,3.37l-4.84,6.54c-2.54,3.41-3.92,5.42-4.12,6.01-.3,.87-.45,3.18-.45,6.93,0,4.97,.21,7.92,.63,8.85,.42,.93,1.77,1.49,4.05,1.7,.59,.06,.89,.24,.89,.56,0,.37-.33,.56-.98,.56l-7.5-.17c-1.8,0-3.28,.04-4.43,.11-.93,.07-1.52,.11-1.78,.11-.71,0-1.06-.19-1.06-.56,0-.3,.26-.45,.78-.47,1.79-.07,2.98-.74,3.58-2,.6-1.26,.9-3.13,.9-5.59,0-2.71-.17-4.9-.5-6.57-.07-.43-.87-1.94-2.39-4.55-1.52-2.61-3.38-5.49-5.58-8.66-2.2-3.16-3.77-5.09-4.72-5.78-.95-.69-1.86-1.07-2.75-1.14-.67-.06-1-.24-1-.56,0-.2,.09-.34,.26-.4,.18-.06,.7-.1,1.57-.1h12.16c.84,0,1.34,.03,1.5,.08,.17,.06,.25,.2,.25,.45,0,.3-.23,.46-.7,.5-2.34,.19-3.51,.89-3.51,2.12,0,.63,.43,1.62,1.28,2.98,.85,1.35,3.45,5.02,7.79,10.99Z"/><path class="d" d="M714.39,236.42c0-2.5,.76-5.26,2.28-8.25,1.52-3,3.74-5.47,6.67-7.42,2.92-1.95,6.22-2.92,9.89-2.92,5.14,0,9.38,1.84,12.73,5.51,3.35,3.67,5.02,7.87,5.02,12.58,0,5.01-1.86,9.5-5.57,13.48-3.71,3.98-8.17,5.97-13.39,5.97s-9.18-1.74-12.57-5.23c-3.39-3.49-5.08-8.06-5.08-13.72Zm6.21-.91c0,3.03,.46,6.13,1.39,9.32,.93,3.19,2.38,5.5,4.37,6.94,1.98,1.44,4.1,2.16,6.37,2.16,3.65,0,6.57-1.78,8.77-5.33s3.29-7.67,3.29-12.35-1.12-8.51-3.36-11.94c-2.24-3.43-5.17-5.14-8.79-5.14-2.72,0-5,.91-6.81,2.74-1.82,1.83-3.14,4.02-3.98,6.56s-1.25,4.89-1.25,7.05Z"/><path class="d" d="M756.41,218.44h13.94c.8,0,1.2,.17,1.2,.5s-.3,.53-.89,.58c-1.32,.13-2.29,.49-2.92,1.09-.63,.59-1.11,1.64-1.43,3.15-.33,1.5-.49,4.72-.49,9.66,0,5.92,.17,10.02,.51,12.3s1.42,4.1,3.23,5.44c1.81,1.35,4.27,2.02,7.39,2.02s5.75-.62,7.46-1.86c1.71-1.24,2.82-3.09,3.33-5.54,.51-2.45,.77-7.77,.77-15.95,0-4.21-.44-6.97-1.31-8.28-.87-1.31-2.16-1.96-3.87-1.96-.69,0-1.03-.19-1.03-.58s.45-.56,1.36-.56h11.13c.5,0,.75,.19,.75,.56,0,.26-.2,.42-.61,.47-1.41,.2-2.45,.65-3.1,1.34-.66,.69-1.09,1.93-1.29,3.73-.2,1.8-.31,4.44-.31,7.93,0,4.36-.16,8.06-.49,11.1-.33,3.04-1.03,5.31-2.1,6.8-1.08,1.49-2.7,2.7-4.86,3.62-2.16,.92-4.82,1.38-7.97,1.38s-5.98-.52-8.25-1.55-3.81-2.4-4.62-4.09c-.81-1.7-1.21-4.24-1.21-7.62l.11-7.72c0-6.85-.29-11.04-.88-12.58-.58-1.53-1.84-2.32-3.77-2.35-.63,0-.95-.15-.95-.46,0-.38,.39-.57,1.17-.57Z"/><path class="d" d="M819.93,236.21c2.58,1.12,4.37,2.28,5.38,3.5,1.01,1.22,1.75,3.1,2.23,5.64,.62,3.34,1.49,5.58,2.6,6.73,1.11,1.15,2.56,1.76,4.35,1.84,.5,.04,.75,.22,.75,.54s-.29,.49-.86,.49c-5.2,0-8.35-.17-9.45-.52-1.1-.34-1.92-2.24-2.46-5.69-.5-3.36-1.03-5.81-1.57-7.36-.55-1.55-1.42-2.74-2.62-3.56-1.2-.83-3.07-1.24-5.61-1.24-.96,0-2.06,.1-3.28,.31-.09,1.17-.14,2.38-.14,3.64,0,4.76,.06,7.84,.19,9.24s.52,2.42,1.18,3.06,1.76,.98,3.3,1.01c.67,.02,1,.18,1,.49,0,.36-.41,.54-1.22,.54h-13.78c-.8,0-1.2-.18-1.2-.54,0-.32,.32-.49,.95-.49,1.41,0,2.39-.21,2.94-.64,.55-.43,.98-1.09,1.29-1.99,.31-.9,.47-2.53,.47-4.88l-.06-5.67,.03-8.65c0-4.41-.1-7.33-.29-8.76-.19-1.43-.54-2.39-1.04-2.88-.5-.49-1.66-.88-3.48-1.15-.39-.06-.58-.21-.58-.47,0-.3,.39-.45,1.17-.45l16.48-.36c4.54,0,7.84,.87,9.89,2.61,2.05,1.74,3.08,3.88,3.08,6.4,0,1.59-.41,3.05-1.24,4.37-.83,1.32-1.8,2.27-2.94,2.86-1.13,.59-2.95,1.27-5.46,2.03Zm-10.55-.71c3.56-.07,6.23-.32,8.02-.75,1.78-.43,3.3-1.36,4.55-2.81,1.25-1.45,1.88-3.16,1.88-5.15,0-2.1-.7-3.92-2.09-5.48s-3.62-2.34-6.68-2.34c-1.67,0-3.52,.22-5.54,.67-.22,5.1-.33,9.17-.33,12.19,0,1.04,.07,2.26,.2,3.67Z"/><path class="d" d="M871.78,220.42c.5-.5,.83-1.02,1-1.56,.15-.45,.36-.67,.64-.67,.15,0,.32,.09,.5,.28,.13,.67,.32,2.01,.56,4.04l.67,5.23c0,.33-.2,.5-.61,.5-.22,0-.42-.19-.58-.56-.98-2.43-2.44-4.45-4.37-6.07-1.93-1.6-4.04-2.39-6.32-2.39s-3.94,.68-5.08,2.03c-1.14,1.35-1.71,2.79-1.71,4.31,0,1.86,.62,3.27,1.87,4.26,1.24,.98,3.8,2.1,7.68,3.34,2.86,.89,5,1.75,6.42,2.59,1.42,.83,2.61,2,3.58,3.51,.96,1.5,1.45,3.12,1.45,4.84,0,2.93-1.22,5.56-3.65,7.88-2.43,2.32-5.41,3.48-8.93,3.48-3.17,0-6.37-.99-9.57-2.98-.63,.52-1.04,1.13-1.22,1.84-.15,.59-.39,.89-.72,.89-.3,0-.51-.38-.64-1.14-.13-.76-.4-4.36-.81-10.8,.07-.22,.27-.33,.58-.33,.28,0,.5,.2,.67,.61,2.86,7.18,6.85,10.77,11.97,10.77,2.54,0,4.53-.77,5.97-2.3,1.44-1.53,2.16-3.29,2.16-5.27,0-1.37-.39-2.63-1.16-3.79-.77-1.15-1.79-2.08-3.06-2.78-1.27-.71-3.28-1.49-6.03-2.37-3.53-1.13-5.92-2.2-7.19-3.21-1.27-1.01-2.2-2.15-2.8-3.42-.59-1.27-.89-2.5-.89-3.69,0-2.47,1.12-4.66,3.35-6.57,2.24-1.91,4.98-2.87,8.22-2.87,1.22,0,2.51,.19,3.86,.58,1.34,.39,2.75,.98,4.22,1.78Z"/><path class="d" d="M882.3,218.44h13.94c.8,0,1.2,.17,1.2,.5s-.3,.53-.89,.58c-1.32,.13-2.29,.49-2.92,1.09-.63,.59-1.11,1.64-1.43,3.15-.33,1.5-.49,4.72-.49,9.66,0,5.92,.17,10.02,.51,12.3s1.42,4.1,3.23,5.44c1.81,1.35,4.27,2.02,7.39,2.02s5.75-.62,7.46-1.86c1.71-1.24,2.82-3.09,3.33-5.54,.51-2.45,.77-7.77,.77-15.95,0-4.21-.44-6.97-1.31-8.28-.87-1.31-2.16-1.96-3.87-1.96-.69,0-1.03-.19-1.03-.58s.45-.56,1.36-.56h11.13c.5,0,.75,.19,.75,.56,0,.26-.2,.42-.61,.47-1.41,.2-2.45,.65-3.1,1.34-.66,.69-1.09,1.93-1.29,3.73-.2,1.8-.31,4.44-.31,7.93,0,4.36-.16,8.06-.49,11.1-.33,3.04-1.03,5.31-2.1,6.8-1.08,1.49-2.7,2.7-4.86,3.62-2.16,.92-4.82,1.38-7.97,1.38s-5.98-.52-8.25-1.55-3.81-2.4-4.62-4.09c-.81-1.7-1.21-4.24-1.21-7.62l.11-7.72c0-6.85-.29-11.04-.88-12.58-.58-1.53-1.84-2.32-3.77-2.35-.63,0-.95-.15-.95-.46,0-.38,.39-.57,1.17-.57Z"/><path class="d" d="M953.68,220.75c1.02-.91,1.61-1.52,1.75-1.84,.19-.45,.46-.67,.81-.67,.37,0,.58,.33,.61,1l.61,9.71c0,.56-.02,.9-.07,1.02-.05,.12-.18,.18-.4,.18-.3,0-.61-.4-.95-1.2-1.22-2.96-2.93-5.38-5.12-7.26-2.21-1.87-4.6-2.81-7.18-2.81-2.26,0-4.34,.73-6.23,2.19s-3.36,3.53-4.41,6.23c-1.05,2.7-1.57,5.6-1.57,8.7,0,5.27,1.45,9.55,4.36,12.84s6.15,4.94,9.73,4.94c2.43,0,4.67-.77,6.71-2.31,2.04-1.54,3.58-3.32,4.62-5.34,.28-.56,.57-.83,.86-.83,.41,0,.61,.22,.61,.67,0,.54-.71,1.72-2.12,3.53-1.41,1.82-3.26,3.29-5.55,4.43-2.29,1.13-4.76,1.7-7.39,1.7-3.1,0-6.05-.79-8.84-2.37-2.79-1.58-5.01-3.76-6.64-6.54-1.63-2.78-2.45-6.05-2.45-9.8s.79-6.99,2.38-9.94,3.82-5.24,6.7-6.87c2.88-1.63,5.85-2.45,8.91-2.45,1.63,0,3.31,.26,5.01,.77,1.71,.51,3.45,1.29,5.24,2.32Z"/><path class="d" d="M990.51,220.75c1.02-.91,1.61-1.52,1.75-1.84,.19-.45,.46-.67,.81-.67,.37,0,.58,.33,.61,1l.61,9.71c0,.56-.02,.9-.07,1.02-.05,.12-.18,.18-.4,.18-.3,0-.61-.4-.95-1.2-1.22-2.96-2.93-5.38-5.12-7.26-2.21-1.87-4.6-2.81-7.18-2.81-2.26,0-4.34,.73-6.23,2.19s-3.36,3.53-4.41,6.23c-1.05,2.7-1.57,5.6-1.57,8.7,0,5.27,1.45,9.55,4.36,12.84s6.15,4.94,9.73,4.94c2.43,0,4.67-.77,6.71-2.31,2.04-1.54,3.58-3.32,4.62-5.34,.28-.56,.57-.83,.86-.83,.41,0,.61,.22,.61,.67,0,.54-.71,1.72-2.12,3.53-1.41,1.82-3.26,3.29-5.55,4.43-2.29,1.13-4.76,1.7-7.39,1.7-3.1,0-6.05-.79-8.84-2.37-2.79-1.58-5.01-3.76-6.64-6.54-1.63-2.78-2.45-6.05-2.45-9.8s.79-6.99,2.38-9.94,3.82-5.24,6.7-6.87c2.88-1.63,5.85-2.45,8.91-2.45,1.63,0,3.31,.26,5.01,.77,1.71,.51,3.45,1.29,5.24,2.32Z"/><path class="d" d="M1028.11,218.78c.54,2.08,1.07,4.99,1.59,8.74-.09,.15-.19,.22-.3,.22-.13,0-.26-.07-.41-.22-1.28-2.06-2.51-3.63-3.68-4.7-1.17-1.08-2.34-1.84-3.52-2.3s-3.21-.68-6.08-.68c-2.71,0-4.86,.16-6.43,.47-.15,.19-.22,.53-.22,1.03,0,.13-.02,.36-.05,.69-.19,1.48-.28,5.5-.28,12.06,0,.28,.02,.67,.06,1.17,1.41,.06,2.38,.08,2.9,.08,2.34,0,4.03-.35,5.08-1.05,1.05-.7,1.96-2.2,2.74-4.52,.13-.39,.31-.59,.55-.59,.35,0,.53,.27,.53,.81l-.11,1.12c-.15,1.47-.22,2.98-.22,4.55,0,2.53,.05,4.81,.14,6.83,0,.63-.17,.95-.51,.95-.25,0-.42-.22-.51-.67-.39-2.19-1.21-3.77-2.46-4.73-1.25-.96-3.96-1.45-8.13-1.45-.06,1.35-.08,3.54-.08,6.57,0,3.92,.14,6.4,.42,7.46,.28,1.06,.95,1.9,2,2.52s2.85,.93,5.38,.93c7.22,0,11.88-2.49,13.98-7.46,.26-.61,.52-.92,.8-.92,.29,0,.44,.2,.44,.61,0,.22-.05,.46-.14,.72-.11,.35-.38,1.67-.81,3.95-.09,.48-.45,1.93-1.06,4.34l-11.66-.03c-1.67,0-4.12-.07-7.36-.21-3.24-.14-6.11-.21-8.6-.22s-3.8-.06-3.91-.15c-.11-.09-.17-.19-.17-.31,0-.37,.31-.56,.92-.56,2.06,0,3.41-.55,4.06-1.64,.65-1.09,.97-3.75,.97-7.98l-.03-5.7,.08-5.34c0-1.08-.06-3.11-.18-6.1-.12-2.99-.23-4.7-.33-5.13-.1-.43-.39-.85-.86-1.27-.47-.42-1.52-.84-3.13-1.27-.48-.13-.72-.33-.72-.61,0-.33,.32-.5,.97-.5l5.68,.31c2,.09,6.93,.14,14.78,.14,5.16,0,7.79,0,7.9,.03Z"/><path class="d" d="M1055.86,220.42c.5-.5,.83-1.02,1-1.56,.15-.45,.36-.67,.64-.67,.15,0,.32,.09,.5,.28,.13,.67,.32,2.01,.56,4.04l.67,5.23c0,.33-.2,.5-.61,.5-.22,0-.42-.19-.58-.56-.98-2.43-2.44-4.45-4.37-6.07-1.93-1.6-4.04-2.39-6.32-2.39s-3.94,.68-5.08,2.03c-1.14,1.35-1.71,2.79-1.71,4.31,0,1.86,.62,3.27,1.87,4.26,1.24,.98,3.8,2.1,7.68,3.34,2.86,.89,5,1.75,6.42,2.59,1.42,.83,2.61,2,3.58,3.51,.96,1.5,1.45,3.12,1.45,4.84,0,2.93-1.22,5.56-3.65,7.88-2.43,2.32-5.41,3.48-8.93,3.48-3.17,0-6.37-.99-9.57-2.98-.63,.52-1.04,1.13-1.22,1.84-.15,.59-.39,.89-.72,.89-.3,0-.51-.38-.64-1.14-.13-.76-.4-4.36-.81-10.8,.07-.22,.27-.33,.58-.33,.28,0,.5,.2,.67,.61,2.86,7.18,6.85,10.77,11.97,10.77,2.54,0,4.53-.77,5.97-2.3,1.44-1.53,2.16-3.29,2.16-5.27,0-1.37-.39-2.63-1.16-3.79-.77-1.15-1.79-2.08-3.06-2.78-1.27-.71-3.28-1.49-6.03-2.37-3.53-1.13-5.92-2.2-7.19-3.21-1.27-1.01-2.2-2.15-2.8-3.42-.59-1.27-.89-2.5-.89-3.69,0-2.47,1.12-4.66,3.35-6.57,2.24-1.91,4.98-2.87,8.22-2.87,1.22,0,2.51,.19,3.86,.58,1.34,.39,2.75,.98,4.22,1.78Z"/><path class="d" d="M1085.55,220.42c.5-.5,.83-1.02,1-1.56,.15-.45,.36-.67,.64-.67,.15,0,.32,.09,.5,.28,.13,.67,.32,2.01,.56,4.04l.67,5.23c0,.33-.2,.5-.61,.5-.22,0-.42-.19-.58-.56-.98-2.43-2.44-4.45-4.37-6.07-1.93-1.6-4.04-2.39-6.32-2.39s-3.94,.68-5.08,2.03c-1.14,1.35-1.71,2.79-1.71,4.31,0,1.86,.62,3.27,1.87,4.26,1.24,.98,3.8,2.1,7.68,3.34,2.86,.89,5,1.75,6.42,2.59,1.42,.83,2.61,2,3.58,3.51,.96,1.5,1.45,3.12,1.45,4.84,0,2.93-1.22,5.56-3.65,7.88-2.43,2.32-5.41,3.48-8.93,3.48-3.17,0-6.37-.99-9.57-2.98-.63,.52-1.04,1.13-1.22,1.84-.15,.59-.39,.89-.72,.89-.3,0-.51-.38-.64-1.14-.13-.76-.4-4.36-.81-10.8,.07-.22,.27-.33,.58-.33,.28,0,.5,.2,.67,.61,2.86,7.18,6.85,10.77,11.97,10.77,2.54,0,4.53-.77,5.97-2.3,1.44-1.53,2.16-3.29,2.16-5.27,0-1.37-.39-2.63-1.16-3.79-.77-1.15-1.79-2.08-3.06-2.78-1.27-.71-3.28-1.49-6.03-2.37-3.53-1.13-5.92-2.2-7.19-3.21-1.27-1.01-2.2-2.15-2.8-3.42-.59-1.27-.89-2.5-.89-3.69,0-2.47,1.12-4.66,3.35-6.57,2.24-1.91,4.98-2.87,8.22-2.87,1.22,0,2.51,.19,3.86,.58,1.34,.39,2.75,.98,4.22,1.78Z"/></g></g></g></g></svg>